<?xml version="1.0" encoding="UTF-8" standalone="no" ?>
<!DOCTYPE svg PUBLIC "-//W3C//DTD SVG 1.1//EN" "http://www.w3.org/Graphics/SVG/1.1/DTD/svg11.dtd">
<svg xmlns="http://www.w3.org/2000/svg" xmlns:xlink="http://www.w3.org/1999/xlink" version="1.1" width="48" height="48" viewBox="0 0 48 48" xml:space="preserve">
<desc>Created with Fabric.js 5.3.0</desc>
<defs>
</defs>
<g transform="matrix(0.07058823529411765 0 0 0.07058823529411765 24 24)" id="background-e7d94e91-10ce-4199-a4d9-36fa93f9b1a9"  >
<rect style="stroke: none; stroke-width: 0; stroke-dasharray: none; stroke-linecap: butt; stroke-dashoffset: 0; stroke-linejoin: miter; stroke-miterlimit: 4; fill: rgb(201,228,101); fill-rule: nonzero; opacity: 1;"  paint-order="stroke"  x="-340" y="-340" rx="0" ry="0" width="680" height="680" />
</g>
<g transform="matrix(0.0719765672703422 0 0 0.0719765672703422 24.53257655428313 22.885396171295405)" id="maker-logo"  >
<g style=""  paint-order="stroke"   >
		<g transform="matrix(1.8758335902990215 0 0 1.8758335902990215 10.287769957860405 -75.70018351247109)" id="logo-logo"  >
<g style=""  paint-order="stroke"   >
		<g transform="matrix(1.5890761425100555 0 0 1.5890761425100552 -14.714845079643055 0)"  >
<radialGradient id="SVGID_92651" gradientUnits="userSpaceOnUse" gradientTransform="matrix(1 0 0 1 0 0)"  cx="168.65" cy="137.24" r="126.69" fx="168.65" fy="137.24">
<stop offset="0%" style="stop-color:rgb(175,244,183);stop-opacity: 1"/>
<stop offset="51%" style="stop-color:rgb(18,129,31);stop-opacity: 1"/>
<stop offset="100%" style="stop-color:rgb(5,36,9);stop-opacity: 1"/>
</radialGradient>
<path style="stroke: none; stroke-width: 1; stroke-dasharray: none; stroke-linecap: butt; stroke-dashoffset: 0; stroke-linejoin: miter; stroke-miterlimit: 4; fill: url(#SVGID_92651); fill-rule: nonzero; opacity: 1;"  paint-order="stroke"  transform=" translate(-154.71000000000004, -144.08)" d="M 221.7 162.6 L 231.28 179.18 L 221.7 195.77 L 221.64999999999998 195.85000000000002 L 174.67999999999998 195.85000000000002 L 184.24999999999997 179.27000000000004 L 212.06999999999996 179.27000000000004 L 212.11999999999998 179.18000000000004 L 221.7 162.60000000000002 Z M 212.07 108.89 L 212.12 108.98 L 221.70000000000002 125.56 L 231.28000000000003 108.98 L 221.70000000000002 92.39 L 221.65 92.31 L 161.87 92.31 L 138.77 132.31 L 87.77000000000001 132.31 L 87.72000000000001 132.39000000000001 L 78.14000000000001 148.98000000000002 L 87.72000000000001 165.56 L 97.30000000000001 148.98000000000002 L 97.35000000000001 148.89000000000001 L 134.75 148.89000000000001 L 147.98 171.81 L 152.17999999999998 171.81 L 159.64999999999998 158.86 L 151.11999999999998 144.08 L 171.43999999999997 108.89000000000001 L 212.06999999999996 108.89000000000001 Z" stroke-linecap="round" />
</g>
		<g transform="matrix(1.5890761425100555 0 0 1.5890761425100552 -14.730735841068224 0.007945380712556016)"  >
<radialGradient id="SVGID_92652" gradientUnits="userSpaceOnUse" gradientTransform="matrix(1 0 0 1 0 0)"  cx="162.41" cy="145.27" r="102.94" fx="162.41" fy="145.27">
<stop offset="0%" style="stop-color:rgb(175,244,183);stop-opacity: 1"/>
<stop offset="51%" style="stop-color:rgb(18,129,31);stop-opacity: 1"/>
<stop offset="100%" style="stop-color:rgb(5,36,9);stop-opacity: 1"/>
</radialGradient>
<path style="stroke: none; stroke-width: 1; stroke-dasharray: none; stroke-linecap: butt; stroke-dashoffset: 0; stroke-linejoin: miter; stroke-miterlimit: 4; fill: url(#SVGID_92652); fill-rule: nonzero; opacity: 1;"  paint-order="stroke"  transform=" translate(-154.7, -144.08499999999998)" d="M 221.7 172.6 L 225.5 179.18 L 218.76 190.85 L 183.33999999999997 190.85 L 187.14 184.26999999999998 L 215.04999999999998 184.26999999999998 L 216.48999999999998 181.61999999999998 L 221.7 172.58999999999997 Z M 215.03 103.89 L 216.45 106.49 L 221.69 115.57 L 225.49 108.99 L 218.75 97.32 L 164.74 97.32 L 141.64000000000001 137.32 L 90.64000000000001 137.32 L 83.90000000000002 148.98999999999998 L 87.70000000000002 155.57 L 92.91000000000001 146.54999999999998 L 94.34000000000002 143.89999999999998 L 137.61 143.89999999999998 L 150.06 165.45999999999998 L 153.86 158.86999999999998 L 145.33 144.08999999999997 L 168.54000000000002 103.89999999999998 L 215.02 103.89999999999998 Z" stroke-linecap="round" />
</g>
		<g transform="matrix(1.5890761425100555 0 0 1.5890761425100552 14.698954318218 0)"  >
<radialGradient id="SVGID_92653" gradientUnits="userSpaceOnUse" gradientTransform="matrix(1 0 0 1 0 0)"  cx="166.07" cy="142.71" r="90.34" fx="166.07" fy="142.71">
<stop offset="0%" style="stop-color:rgb(20,143,35);stop-opacity: 1"/>
<stop offset="51%" style="stop-color:rgb(13,89,22);stop-opacity: 1"/>
<stop offset="100%" style="stop-color:rgb(5,36,9);stop-opacity: 1"/>
</radialGradient>
<path style="stroke: none; stroke-width: 1; stroke-dasharray: none; stroke-linecap: butt; stroke-dashoffset: 0; stroke-linejoin: miter; stroke-miterlimit: 4; fill: url(#SVGID_92653); fill-rule: nonzero; opacity: 1;"  paint-order="stroke"  transform=" translate(-173.22000000000003, -144.07999999999998)" d="M 106.22 125.56 L 96.64 108.98 L 106.22 92.39 L 106.27 92.31 L 153.25 92.31 L 143.67 108.89 L 115.85 108.89 L 115.8 108.98 L 106.22 125.56 Z M 240.21 132.39 L 240.16 132.30999999999997 L 189.16 132.30999999999997 L 183.85999999999999 123.12999999999997 L 179.95 116.34999999999997 L 175.75 116.34999999999997 L 168.28 129.29999999999995 L 176.81 144.07999999999996 L 156.49 179.26999999999995 L 115.86000000000001 179.26999999999995 L 115.81000000000002 179.17999999999995 L 106.23000000000002 162.59999999999997 L 96.65000000000002 179.17999999999995 L 106.23000000000002 195.76999999999995 L 106.28000000000002 195.84999999999997 L 166.06 195.84999999999997 L 193.18 148.87999999999997 L 230.59 148.87999999999997 L 230.64000000000001 148.96999999999997 L 240.22000000000003 165.54999999999995 L 249.80000000000004 148.96999999999997 L 240.22000000000003 132.37999999999997 Z" stroke-linecap="round" />
</g>
		<g transform="matrix(1.5890761425100555 0 0 1.5890761425100552 14.691008937505387 -0.007945380712556016)"  >
<radialGradient id="SVGID_92654" gradientUnits="userSpaceOnUse" gradientTransform="matrix(1 0 0 1 0 0)"  cx="226.42" cy="138.84" r="225.39" fx="226.42" fy="138.84">
<stop offset="0%" style="stop-color:rgb(20,143,35);stop-opacity: 1"/>
<stop offset="51%" style="stop-color:rgb(13,89,22);stop-opacity: 1"/>
<stop offset="100%" style="stop-color:rgb(5,36,9);stop-opacity: 1"/>
</radialGradient>
<path style="stroke: none; stroke-width: 1; stroke-dasharray: none; stroke-linecap: butt; stroke-dashoffset: 0; stroke-linejoin: miter; stroke-miterlimit: 4; fill: url(#SVGID_92654); fill-rule: nonzero; opacity: 1;"  paint-order="stroke"  transform=" translate(-173.21499999999997, -144.075)" d="M 106.22 115.56 L 102.42 108.98 L 109.16 97.31 L 144.59 97.31 L 140.79 103.89 L 112.88999999999999 103.89 L 111.43999999999998 106.53 L 106.21999999999998 115.57 Z M 237.27 137.31 L 186.27 137.31 L 177.84 122.71000000000001 L 174.04 129.3 L 182.57 144.08 L 159.35999999999999 184.27 L 112.86999999999998 184.27 L 111.44999999999997 181.65 L 106.21999999999997 172.59 L 102.41999999999997 179.17000000000002 L 109.15999999999997 190.84 L 163.16999999999996 190.84 L 190.28999999999996 143.87 L 233.54999999999995 143.87 L 234.96999999999994 146.48000000000002 L 240.20999999999995 155.55 L 244.00999999999996 148.97 L 237.26999999999995 137.3 Z" stroke-linecap="round" />
</g>
</g>
</g>
		<g transform="matrix(1 0 0 1 1.8792616771371797 172.51911506559946)" id="text-logo"  >
<g style=""  paint-order="stroke"   >
		<g transform="matrix(1 0 0 1 0 0)" id="text-logo-path-0"  >
<path style="stroke: rgb(255,255,255); stroke-width: 0; stroke-dasharray: none; stroke-linecap: butt; stroke-dashoffset: 0; stroke-linejoin: miter; stroke-miterlimit: 4; fill: rgb(5,36,9); fill-rule: nonzero; opacity: 1;"  paint-order="stroke"  transform=" translate(-155.83, 44.43)" d="M 5.71 -44.59 L 5.71 -44.59 Q 5.71 -65.92 19.6 -78.29 Q 33.49 -90.66 57.61 -90.66 L 57.61 -90.66 Q 75.84 -90.66 89.17 -83.78 L 89.17 -83.78 L 89.42 -62.01 L 88.37 -62.01 Q 81.86 -85.33 58.85 -85.33 L 58.85 -85.33 Q 43.78 -85.33 35.1 -74.45 Q 26.42 -63.56 26.42 -44.83 L 26.42 -44.83 Q 26.42 -26.04 34.73 -14.98 Q 43.04 -3.91 57.24 -3.53 L 57.24 -3.53 Q 72.18 -3.53 79.93 -11.1 Q 87.68 -18.67 90.6 -37.08 L 90.6 -37.08 L 91.65 -37.08 L 92.89 -15.19 Q 82.6 1.8 57.24 1.8 L 57.24 1.8 Q 41.67 1.74 30.08 -3.75 Q 18.48 -9.24 12.09 -19.75 Q 5.71 -30.26 5.71 -44.59 Z M 134.43 -16.62 L 134.43 -16.62 Q 135.42 -23.19 138.03 -27.47 L 138.03 -27.47 L 139.14 -27.47 Q 139.08 -26.48 139.02 -25.49 L 139.02 -25.49 Q 139.02 -16.62 145.1 -10.36 L 145.1 -10.36 Q 151.67 -3.6 162.52 -3.6 L 162.52 -3.6 Q 162.83 -3.6 163.08 -3.6 L 163.08 -3.6 Q 171.2 -3.72 175.92 -7.75 Q 180.63 -11.78 180.63 -17.86 L 180.63 -17.86 Q 180.63 -21.58 178.24 -24.46 Q 175.86 -27.35 170.46 -30.94 L 170.46 -30.94 L 148.32 -45.64 Q 136.04 -53.89 136.04 -65.98 L 136.04 -65.98 Q 136.04 -67.22 136.17 -68.46 L 136.17 -68.46 Q 136.97 -78.51 144.04 -84.58 Q 151.11 -90.66 162.9 -90.66 L 162.9 -90.66 Q 169.96 -90.66 180.2 -89.36 L 180.2 -89.36 L 188.2 -89.36 L 186.52 -70.69 L 185.28 -70.69 Q 185.28 -77.27 180.38 -81.3 Q 175.48 -85.33 167.42 -85.33 L 167.42 -85.33 Q 160.1 -85.33 155.58 -81.86 Q 151.05 -78.38 150.8 -73.11 L 150.8 -73.11 Q 150.8 -72.86 150.8 -72.55 L 150.8 -72.55 Q 150.8 -69.39 152.79 -66.97 L 152.79 -66.97 Q 155.02 -64.31 159.61 -61.33 L 159.61 -61.33 L 183.86 -45.58 Q 195.33 -38.2 195.33 -26.11 L 195.33 -26.11 Q 195.33 -25.3 195.27 -24.49 L 195.27 -24.49 Q 194.71 -12.09 185.84 -5.15 Q 176.97 1.8 161.72 1.8 L 161.72 1.8 Q 153.1 1.8 145.78 -0.31 Q 138.46 -2.42 134.99 -5.95 L 134.99 -5.95 Q 134.06 -8.43 134.06 -11.84 L 134.06 -11.84 Q 134.06 -14.01 134.43 -16.62 Z M 300.12 0 L 234.39 0 L 234.39 -1.24 L 236 -1.24 Q 239.35 -1.24 241.7 -3.6 Q 244.06 -5.95 244.12 -9.24 L 244.12 -9.24 L 244.12 -79.62 Q 244.06 -82.91 241.7 -85.27 Q 239.35 -87.62 236 -87.62 L 236 -87.62 L 234.39 -87.62 L 234.39 -88.92 L 272.96 -88.92 L 272.89 -87.62 L 271.34 -87.62 Q 268 -87.62 265.61 -85.27 Q 263.22 -82.91 263.16 -79.62 L 263.16 -79.62 L 263.16 -5.46 L 279.84 -5.46 Q 289.14 -5.46 295.4 -10.82 Q 301.67 -16.19 304.71 -25.92 L 304.71 -25.92 L 305.95 -25.92 L 300.12 0 Z" stroke-linecap="round" />
</g>
</g>
</g>
		<g transform="matrix(1 0 0 1 9.287769957860405 170.87137689557392)" id="tagline-9b85e65e-2140-4805-877e-b629d39fbf04-logo"  >
<g style=""  paint-order="stroke"   >
		<g transform="matrix(1 0 0 1 0 -23.59439999999998)" id="tagline-9b85e65e-2140-4805-877e-b629d39fbf04-logo-path-0"  >
<path style="stroke: none; stroke-width: 0; stroke-dasharray: none; stroke-linecap: butt; stroke-dashoffset: 0; stroke-linejoin: miter; stroke-miterlimit: 4; fill: rgb(13,89,22); fill-rule: nonzero; opacity: 1;"  paint-order="stroke"  transform=" translate(0, 0)" d="" stroke-linecap="round" />
</g>
		<g transform="matrix(1 0 0 1 0 23.594400000000007)" id="tagline-9b85e65e-2140-4805-877e-b629d39fbf04-logo-path-1"  >
<path style="stroke: none; stroke-width: 0; stroke-dasharray: none; stroke-linecap: butt; stroke-dashoffset: 0; stroke-linejoin: miter; stroke-miterlimit: 4; fill: rgb(13,89,22); fill-rule: nonzero; opacity: 1;"  paint-order="stroke"  transform=" translate(0, 0)" d="" stroke-linecap="round" />
</g>
</g>
</g>
</g>
</g>
</svg>
