<?xml version="1.0" encoding="UTF-8" standalone="no" ?>
<!DOCTYPE svg PUBLIC "-//W3C//DTD SVG 1.1//EN" "http://www.w3.org/Graphics/SVG/1.1/DTD/svg11.dtd">
<svg xmlns="http://www.w3.org/2000/svg" xmlns:xlink="http://www.w3.org/1999/xlink" version="1.1" width="1280" height="1024" viewBox="0 0 1280 1024" xml:space="preserve">
<desc>Created with Fabric.js 5.3.0</desc>
<defs>
</defs>
<g transform="matrix(1 0 0 1 640 512)" id="background-logo"  >
<rect style="stroke: none; stroke-width: 0; stroke-dasharray: none; stroke-linecap: butt; stroke-dashoffset: 0; stroke-linejoin: miter; stroke-miterlimit: 4; fill: rgb(255,255,255); fill-opacity: 0; fill-rule: nonzero; opacity: 1;"  paint-order="stroke"  x="-640" y="-512" rx="0" ry="0" width="1280" height="1024" />
</g>
<g transform="matrix(2.0841279960826053 0 0 2.0841279960826053 316.7080017395195 457.65274260421813)" id="logo-logo"  >
<g style=""  paint-order="stroke"   >
		<g transform="matrix(1.5890761425100555 0 0 1.5890761425100552 -14.714845079643055 0)"  >
<path style="stroke: none; stroke-width: 1; stroke-dasharray: none; stroke-linecap: butt; stroke-dashoffset: 0; stroke-linejoin: miter; stroke-miterlimit: 4; fill: rgb(14,104,25); fill-rule: nonzero; opacity: 1;"  paint-order="stroke"  transform=" translate(-154.71000000000004, -144.08)" d="M 221.7 162.6 L 231.28 179.18 L 221.7 195.77 L 221.64999999999998 195.85000000000002 L 174.67999999999998 195.85000000000002 L 184.24999999999997 179.27000000000004 L 212.06999999999996 179.27000000000004 L 212.11999999999998 179.18000000000004 L 221.7 162.60000000000002 Z M 212.07 108.89 L 212.12 108.98 L 221.70000000000002 125.56 L 231.28000000000003 108.98 L 221.70000000000002 92.39 L 221.65 92.31 L 161.87 92.31 L 138.77 132.31 L 87.77000000000001 132.31 L 87.72000000000001 132.39000000000001 L 78.14000000000001 148.98000000000002 L 87.72000000000001 165.56 L 97.30000000000001 148.98000000000002 L 97.35000000000001 148.89000000000001 L 134.75 148.89000000000001 L 147.98 171.81 L 152.17999999999998 171.81 L 159.64999999999998 158.86 L 151.11999999999998 144.08 L 171.43999999999997 108.89000000000001 L 212.06999999999996 108.89000000000001 Z" stroke-linecap="round" />
</g>
		<g transform="matrix(1.5890761425100555 0 0 1.5890761425100552 -14.730735841068224 0.007945380712556016)"  >
<path style="stroke: none; stroke-width: 1; stroke-dasharray: none; stroke-linecap: butt; stroke-dashoffset: 0; stroke-linejoin: miter; stroke-miterlimit: 4; fill: rgb(14,104,25); fill-rule: nonzero; opacity: 1;"  paint-order="stroke"  transform=" translate(-154.7, -144.08499999999998)" d="M 221.7 172.6 L 225.5 179.18 L 218.76 190.85 L 183.33999999999997 190.85 L 187.14 184.26999999999998 L 215.04999999999998 184.26999999999998 L 216.48999999999998 181.61999999999998 L 221.7 172.58999999999997 Z M 215.03 103.89 L 216.45 106.49 L 221.69 115.57 L 225.49 108.99 L 218.75 97.32 L 164.74 97.32 L 141.64000000000001 137.32 L 90.64000000000001 137.32 L 83.90000000000002 148.98999999999998 L 87.70000000000002 155.57 L 92.91000000000001 146.54999999999998 L 94.34000000000002 143.89999999999998 L 137.61 143.89999999999998 L 150.06 165.45999999999998 L 153.86 158.86999999999998 L 145.33 144.08999999999997 L 168.54000000000002 103.89999999999998 L 215.02 103.89999999999998 Z" stroke-linecap="round" />
</g>
		<g transform="matrix(1.5890761425100555 0 0 1.5890761425100552 14.698954318218 0)"  >
<path style="stroke: none; stroke-width: 1; stroke-dasharray: none; stroke-linecap: butt; stroke-dashoffset: 0; stroke-linejoin: miter; stroke-miterlimit: 4; fill: rgb(204,228,100); fill-rule: nonzero; opacity: 1;"  paint-order="stroke"  transform=" translate(-173.22000000000003, -144.07999999999998)" d="M 106.22 125.56 L 96.64 108.98 L 106.22 92.39 L 106.27 92.31 L 153.25 92.31 L 143.67 108.89 L 115.85 108.89 L 115.8 108.98 L 106.22 125.56 Z M 240.21 132.39 L 240.16 132.30999999999997 L 189.16 132.30999999999997 L 183.85999999999999 123.12999999999997 L 179.95 116.34999999999997 L 175.75 116.34999999999997 L 168.28 129.29999999999995 L 176.81 144.07999999999996 L 156.49 179.26999999999995 L 115.86000000000001 179.26999999999995 L 115.81000000000002 179.17999999999995 L 106.23000000000002 162.59999999999997 L 96.65000000000002 179.17999999999995 L 106.23000000000002 195.76999999999995 L 106.28000000000002 195.84999999999997 L 166.06 195.84999999999997 L 193.18 148.87999999999997 L 230.59 148.87999999999997 L 230.64000000000001 148.96999999999997 L 240.22000000000003 165.54999999999995 L 249.80000000000004 148.96999999999997 L 240.22000000000003 132.37999999999997 Z" stroke-linecap="round" />
</g>
		<g transform="matrix(1.5890761425100555 0 0 1.5890761425100552 14.691008937505387 -0.007945380712556016)"  >
<path style="stroke: none; stroke-width: 1; stroke-dasharray: none; stroke-linecap: butt; stroke-dashoffset: 0; stroke-linejoin: miter; stroke-miterlimit: 4; fill: rgb(204,228,100); fill-rule: nonzero; opacity: 1;"  paint-order="stroke"  transform=" translate(-173.21499999999997, -144.075)" d="M 106.22 115.56 L 102.42 108.98 L 109.16 97.31 L 144.59 97.31 L 140.79 103.89 L 112.88999999999999 103.89 L 111.43999999999998 106.53 L 106.21999999999998 115.57 Z M 237.27 137.31 L 186.27 137.31 L 177.84 122.71000000000001 L 174.04 129.3 L 182.57 144.08 L 159.35999999999999 184.27 L 112.86999999999998 184.27 L 111.44999999999997 181.65 L 106.21999999999997 172.59 L 102.41999999999997 179.17000000000002 L 109.15999999999997 190.84 L 163.16999999999996 190.84 L 190.28999999999996 143.87 L 233.54999999999995 143.87 L 234.96999999999994 146.48000000000002 L 240.20999999999995 155.55 L 244.00999999999996 148.97 L 237.26999999999995 137.3 Z" stroke-linecap="round" />
</g>
</g>
</g>
<g transform="matrix(1.9211538461538462 0 0 1.9211538461538462 877.9387674266907 451.1899535972279)" id="text-logo"  >
<g style=""  paint-order="stroke"   >
		<g transform="matrix(1 0 0 1 0 0)" id="text-logo-path-0"  >
<path style="stroke: rgb(255,255,255); stroke-width: 0; stroke-dasharray: none; stroke-linecap: butt; stroke-dashoffset: 0; stroke-linejoin: miter; stroke-miterlimit: 4; fill: rgb(255,255,255); fill-rule: nonzero; opacity: 1;"  paint-order="stroke"  transform=" translate(-115.575, 32.955)" d="M 4.23 -33.07 L 4.23 -33.07 Q 4.23 -48.89 14.53 -58.07 Q 24.84 -67.24 42.73 -67.24 L 42.73 -67.24 Q 56.25 -67.24 66.14 -62.14 L 66.14 -62.14 L 66.32 -45.99 L 65.54 -45.99 Q 60.71 -63.29 43.65 -63.29 L 43.65 -63.29 Q 32.47 -63.29 26.03 -55.22 Q 19.59 -47.14 19.59 -33.25 L 19.59 -33.25 Q 19.59 -19.32 25.76 -11.11 Q 31.92 -2.9 42.45 -2.62 L 42.45 -2.62 Q 53.54 -2.62 59.29 -8.23 Q 65.03 -13.84 67.2 -27.5 L 67.2 -27.5 L 67.98 -27.5 L 68.9 -11.27 Q 61.26 1.33 42.45 1.33 L 42.45 1.33 Q 30.91 1.29 22.31 -2.78 Q 13.71 -6.85 8.97 -14.65 Q 4.23 -22.44 4.23 -33.07 Z M 99.71 -12.33 L 99.71 -12.33 Q 100.44 -17.2 102.37 -20.38 L 102.37 -20.38 L 103.2 -20.38 Q 103.16 -19.64 103.11 -18.9 L 103.11 -18.9 Q 103.11 -12.33 107.62 -7.68 L 107.62 -7.68 Q 112.49 -2.67 120.54 -2.67 L 120.54 -2.67 Q 120.77 -2.67 120.96 -2.67 L 120.96 -2.67 Q 126.98 -2.76 130.48 -5.75 Q 133.97 -8.74 133.97 -13.25 L 133.97 -13.25 Q 133.97 -16.01 132.2 -18.14 Q 130.43 -20.28 126.43 -22.95 L 126.43 -22.95 L 110.01 -33.85 Q 100.9 -39.97 100.9 -48.94 L 100.9 -48.94 Q 100.9 -49.86 100.99 -50.78 L 100.99 -50.78 Q 101.59 -58.23 106.84 -62.73 Q 112.08 -67.24 120.82 -67.24 L 120.82 -67.24 Q 126.06 -67.24 133.65 -66.28 L 133.65 -66.28 L 139.58 -66.28 L 138.34 -52.43 L 137.42 -52.43 Q 137.42 -57.31 133.79 -60.3 Q 130.15 -63.29 124.18 -63.29 L 124.18 -63.29 Q 118.75 -63.29 115.39 -60.71 Q 112.03 -58.14 111.85 -54.23 L 111.85 -54.23 Q 111.85 -54.04 111.85 -53.81 L 111.85 -53.81 Q 111.85 -51.47 113.32 -49.67 L 113.32 -49.67 Q 114.98 -47.7 118.38 -45.49 L 118.38 -45.49 L 136.36 -33.81 Q 144.87 -28.33 144.87 -19.36 L 144.87 -19.36 Q 144.87 -18.77 144.83 -18.17 L 144.83 -18.17 Q 144.41 -8.97 137.84 -3.82 Q 131.26 1.33 119.94 1.33 L 119.94 1.33 Q 113.55 1.33 108.12 -0.23 Q 102.7 -1.79 100.12 -4.42 L 100.12 -4.42 Q 99.43 -6.26 99.43 -8.78 L 99.43 -8.78 Q 99.43 -10.39 99.71 -12.33 Z M 222.59 0 L 173.84 0 L 173.84 -0.92 L 175.04 -0.92 Q 177.52 -0.92 179.27 -2.67 Q 181.02 -4.42 181.06 -6.85 L 181.06 -6.85 L 181.06 -59.06 Q 181.02 -61.49 179.27 -63.24 Q 177.52 -64.99 175.04 -64.99 L 175.04 -64.99 L 173.84 -64.99 L 173.84 -65.95 L 202.45 -65.95 L 202.4 -64.99 L 201.25 -64.99 Q 198.77 -64.99 197 -63.24 Q 195.23 -61.49 195.18 -59.06 L 195.18 -59.06 L 195.18 -4.05 L 207.55 -4.05 Q 214.45 -4.05 219.1 -8.03 Q 223.74 -12 226 -19.23 L 226 -19.23 L 226.92 -19.23 L 222.59 0 Z" stroke-linecap="round" />
</g>
</g>
</g>
<g transform="matrix(1 0 0 1 334.2877699578604 430.97482402761966)" id="tagline-9b85e65e-2140-4805-877e-b629d39fbf04-logo"  >
<g style=""  paint-order="stroke"   >
		<g transform="matrix(1 0 0 1 0 -23.810224951750115)" id="tagline-9b85e65e-2140-4805-877e-b629d39fbf04-logo-path-0"  >
<path style="stroke: none; stroke-width: 0; stroke-dasharray: none; stroke-linecap: butt; stroke-dashoffset: 0; stroke-linejoin: miter; stroke-miterlimit: 4; fill: rgb(13,89,22); fill-rule: nonzero; opacity: 1;"  paint-order="stroke"  transform=" translate(0, 0)" d="" stroke-linecap="round" />
</g>
		<g transform="matrix(1 0 0 1 0 23.810224951750172)" id="tagline-9b85e65e-2140-4805-877e-b629d39fbf04-logo-path-1"  >
<path style="stroke: none; stroke-width: 0; stroke-dasharray: none; stroke-linecap: butt; stroke-dashoffset: 0; stroke-linejoin: miter; stroke-miterlimit: 4; fill: rgb(13,89,22); fill-rule: nonzero; opacity: 1;"  paint-order="stroke"  transform=" translate(0, 0)" d="" stroke-linecap="round" />
</g>
</g>
</g>
</svg>